<svg width="61" height="69" viewBox="0 0 61 69" fill="none" xmlns="http://www.w3.org/2000/svg">
<g clip-path="url(#clip0)">
<path fill-rule="evenodd" clip-rule="evenodd" d="M19.2575 26.8745L29.5324 21.1133V10.2815C28.3384 10.0683 27.2573 9.44017 26.4784 8.50708L10.0175 18.0698C10.2133 18.6201 10.3195 19.2097 10.3195 19.8274C10.3195 20.344 10.2468 20.8381 10.107 21.3098L19.2575 26.8745ZM25.6059 7.00781C25.3875 6.42436 25.2757 5.80615 25.2759 5.18286C25.2759 3.75098 25.852 2.45386 26.7861 1.51611C27.7201 0.578369 29.0122 0 30.4385 0C31.8647 0 33.1568 0.578369 34.0909 1.51611C34.5707 1.99731 34.9512 2.56896 35.2104 3.19821C35.4695 3.82747 35.6023 4.50194 35.601 5.18286C35.601 5.81177 35.4892 6.4126 35.2878 6.96851L51.8271 16.5706C51.9445 16.4302 52.062 16.2898 52.1906 16.1606C52.6699 15.6789 53.2393 15.2969 53.8661 15.0367C54.4929 14.7765 55.1647 14.6433 55.843 14.6445C57.2693 14.6445 58.5613 15.2229 59.4954 16.1606C59.9753 16.6418 60.3558 17.2135 60.6149 17.8427C60.8741 18.472 61.0068 19.1465 61.0056 19.8274C61.0056 21.2593 60.4295 22.5508 59.4954 23.4885C58.6926 24.2954 57.6463 24.8127 56.5198 24.9597V44.001C57.6776 44.1526 58.7123 44.686 59.4954 45.4722C60.4295 46.4099 61.0056 47.707 61.0056 49.1333C61.0062 49.8141 60.873 50.4883 60.6138 51.1174C60.3546 51.7465 59.9743 52.3181 59.4948 52.7995C59.0153 53.2808 58.446 53.6626 57.8193 53.9228C57.1927 54.1831 56.5211 54.3168 55.843 54.3162C55.0774 54.3174 54.3211 54.1471 53.6293 53.8178C52.9375 53.4885 52.3275 53.0084 51.8438 52.4126L35.2822 62.0259C35.4836 62.5818 35.5954 63.1826 35.5954 63.8115C35.5954 65.2434 35.0193 66.5405 34.0853 67.4783C33.6059 67.96 33.0365 68.342 32.4097 68.6022C31.7829 68.8624 31.1111 68.9957 30.4329 68.9944C29.0066 68.9944 27.7145 68.416 26.7805 67.4783C25.8464 66.5405 25.2703 65.2434 25.2703 63.8115C25.2703 63.1714 25.3878 62.5537 25.6003 61.9866L9.14495 52.4351C8.66084 53.0264 8.05195 53.5023 7.36229 53.8286C6.67262 54.1549 5.91937 54.3233 5.15696 54.3218C3.73068 54.3218 2.43864 53.7434 1.50457 52.8057C0.57609 51.8679 -1.46184e-05 50.5708 -1.46184e-05 49.1389C-1.46184e-05 47.707 0.57609 46.4155 1.51016 45.4778C2.30382 44.6802 3.33461 44.1638 4.44662 44.0066V24.9541C3.33385 24.7994 2.30232 24.2826 1.51016 23.4829C1.02992 23.0031 0.649177 22.4326 0.389962 21.8041C0.130747 21.1757 -0.00180038 20.5019 -1.46184e-05 19.8218C-1.46184e-05 18.3899 0.57609 17.0928 1.51016 16.155C1.98948 15.6733 2.55889 15.2913 3.18568 15.0311C3.81247 14.7709 4.4843 14.6376 5.16256 14.6389C5.92959 14.6376 6.68723 14.8083 7.38011 15.1386C8.073 15.4689 8.68361 15.9505 9.16733 16.5481L25.6059 7.00781ZM34.4209 8.47339C33.6369 9.43296 32.5349 10.0769 31.3166 10.2871V21.1133L41.569 27.0767L50.9937 21.6074C50.7867 21.0515 50.6804 20.4451 50.6804 19.8218C50.6804 19.2153 50.7867 18.6257 50.9769 18.0867L34.4209 8.47339ZM54.9425 24.926C53.8993 24.7439 52.9379 24.2417 52.1906 23.4885C52.0843 23.3818 51.9837 23.2751 51.8886 23.1572L42.4807 28.6152V40.2837L51.9277 45.7585C52.0116 45.6631 52.0955 45.5676 52.185 45.4778C52.9331 44.7257 53.8941 44.2236 54.9369 44.0403V24.926H54.9425ZM50.9881 50.9077C50.7867 50.3574 50.6804 49.7622 50.6804 49.1445C50.6804 48.4932 50.7979 47.8699 51.0216 47.2915L41.8822 41.9963L31.3166 48.1619V58.7129C32.5349 58.9231 33.6369 59.567 34.4209 60.5266L50.9881 50.9077ZM26.4784 60.4873C27.2573 59.5542 28.3384 58.9261 29.5324 58.7129V48.1113L18.9275 41.9346L9.92801 47.1511C10.1797 47.7632 10.3251 48.437 10.3251 49.1445C10.3251 49.7734 10.2133 50.3743 10.0119 50.9302L26.4784 60.4873ZM6.01832 44.0291C7.09782 44.2087 8.06545 44.731 8.80936 45.4778C8.86529 45.5339 8.91563 45.5901 8.96597 45.6462L18.1333 40.3342V28.2783L9.30716 22.9102C9.15614 23.1179 8.98834 23.3088 8.80936 23.4885C8.05099 24.2501 7.07571 24.7563 6.01832 24.9373V44.0291ZM5.16815 23.2134C5.19052 23.2134 5.2129 23.2078 5.23527 23.2078H5.28001C6.13474 23.1808 6.94699 22.8273 7.55087 22.2195C7.86503 21.905 8.11421 21.5312 8.28411 21.1198C8.454 20.7083 8.54126 20.2672 8.54088 19.8218C8.54088 18.884 8.16054 18.0361 7.55087 17.4241C6.94121 16.812 6.09663 16.4302 5.16256 16.4302C4.22848 16.4302 3.3839 16.812 2.77424 17.4241C2.46008 17.7386 2.2109 18.1123 2.041 18.5238C1.87111 18.9353 1.78385 19.3764 1.78423 19.8218C1.78423 20.7595 2.16457 21.6074 2.77424 22.2195C3.08832 22.5354 3.46152 22.7858 3.87235 22.9564C4.28319 23.1269 4.72357 23.2143 5.16815 23.2134ZM32.8212 61.425C32.5079 61.1097 32.1356 60.8595 31.7258 60.6889C31.3159 60.5184 30.8765 60.4308 30.4329 60.4312C29.4988 60.4312 28.6542 60.813 28.0445 61.425C27.4349 62.0371 27.0545 62.885 27.0545 63.8228C27.0545 64.7605 27.4349 65.6084 28.0445 66.2205C28.6542 66.8325 29.4988 67.2144 30.4329 67.2144C31.3669 67.2144 32.2115 66.8325 32.8212 66.2205C33.4308 65.6084 33.8112 64.7605 33.8112 63.8228C33.8112 62.885 33.4364 62.0371 32.8212 61.425ZM32.8212 2.78516C32.5079 2.46976 32.1356 2.2196 31.7258 2.04904C31.3159 1.87848 30.8765 1.79088 30.4329 1.79126C29.4988 1.79126 28.6542 2.1731 28.0445 2.78516C27.4349 3.39722 27.0545 4.24512 27.0545 5.18286C27.0545 6.1206 27.4349 6.96851 28.0445 7.58057C28.3578 7.89596 28.7301 8.14612 29.14 8.31668C29.5498 8.48724 29.9892 8.57485 30.4329 8.57446C31.3669 8.57446 32.2115 8.19263 32.8212 7.58057C33.1353 7.26605 33.3845 6.89232 33.5544 6.48085C33.7243 6.06939 33.8116 5.62828 33.8112 5.18286C33.8112 4.24512 33.4364 3.39722 32.8212 2.78516ZM58.2257 46.7468C57.9124 46.4314 57.5402 46.1813 57.1303 46.0107C56.7205 45.8401 56.2811 45.7525 55.8374 45.7529C54.9033 45.7529 54.0588 46.1348 53.4491 46.7468C53.1349 47.0613 52.8858 47.4351 52.7159 47.8465C52.546 48.258 52.4587 48.6991 52.4591 49.1445C52.4591 50.0823 52.8394 50.9302 53.4491 51.5422C53.7624 51.8576 54.1346 52.1078 54.5445 52.2784C54.9544 52.4489 55.3937 52.5365 55.8374 52.5361C56.7715 52.5361 57.6161 52.1543 58.2257 51.5422C58.5399 51.2277 58.7891 50.854 58.959 50.4425C59.1289 50.0311 59.2161 49.5899 59.2157 49.1445C59.2157 48.2068 58.841 47.3589 58.2257 46.7468ZM7.55087 46.7468C6.94121 46.1348 6.09663 45.7529 5.16256 45.7529C4.22848 45.7529 3.3839 46.1348 2.77424 46.7468C2.46008 47.0613 2.2109 47.4351 2.041 47.8465C1.87111 48.258 1.78385 48.6991 1.78423 49.1445C1.78423 50.0823 2.16457 50.9302 2.77424 51.5422C3.3839 52.1543 4.22848 52.5361 5.16256 52.5361C6.09663 52.5361 6.94121 52.1543 7.55087 51.5422C7.86503 51.2277 8.11421 50.854 8.28411 50.4425C8.454 50.0311 8.54126 49.5899 8.54088 49.1445C8.53908 48.2454 8.1832 47.3835 7.55087 46.7468ZM52.8282 21.3547C52.873 21.3997 52.9066 21.4558 52.9401 21.512C52.9737 21.5681 52.996 21.6243 53.0184 21.686C53.1471 21.877 53.2925 22.0566 53.4491 22.2195C53.7624 22.5349 54.1346 22.785 54.5445 22.9556C54.9544 23.1262 55.3937 23.2138 55.8374 23.2134C56.7715 23.2134 57.6161 22.8315 58.2257 22.2195C58.5399 21.905 58.7891 21.5312 58.959 21.1198C59.1289 20.7083 59.2161 20.2672 59.2157 19.8218C59.2157 18.884 58.8354 18.0361 58.2257 17.4241C57.9124 17.1087 57.5402 16.8585 57.1303 16.688C56.7205 16.5174 56.2811 16.4298 55.8374 16.4302C54.9033 16.4302 54.0588 16.812 53.4491 17.4241C53.1349 17.7386 52.8858 18.1123 52.7159 18.5238C52.546 18.9353 52.4587 19.3764 52.4591 19.8218C52.4647 20.3777 52.5989 20.8943 52.8282 21.3547ZM19.8057 40.1433C19.9328 40.2805 20.0165 40.4525 20.0462 40.6375L29.6274 46.292V35.1289L19.8057 29.261V40.1433ZM40.8139 29.4126L31.2998 35.1345V46.3032L40.8139 40.6599V29.4126ZM30.4217 22.4553L21.1369 28.0312L30.472 33.6746L39.5387 28.1492L30.4217 22.4553Z" fill="#42D9D9"/>
</g>
<defs>
<clipPath id="clip0">
<rect width="61" height="69" fill="white"/>
</clipPath>
</defs>
</svg>
