<svg width="143" height="41" viewBox="0 0 143 41" fill="none" xmlns="http://www.w3.org/2000/svg">
<g clip-path="url(#clip0_236_307)">
<path d="M15.5197 15.7946L20.0018 8.6611L24.4947 15.7946L27.8348 12.4461L19.9983 0L12.1653 12.4711L15.5197 15.7946Z" fill="white"/>
<path d="M34.69 40.3433L39.9607 37.2166L40 4.41461L19.9875 24.2196L0.0356856 3.98889L0 37.2202L5.2779 40.2718V17.6048L19.9804 32.7841L34.6864 17.6048L34.69 40.3433Z" fill="#E3BD2D"/>
</g>
<path d="M66.8341 27.1791L65.4482 20.7606L62.6459 27.299H62.4596L59.702 20.8326L58.4011 27.1791H57L59.2009 17.0153H59.397L62.5566 24.6205L65.701 17.0153H65.9015L68.2026 27.1791H66.8341Z" fill="white"/>
<path d="M76.2117 25.0499H71.9266L71.0408 27.1792H69.5361L73.9531 17.0295H74.1525L78.5836 27.1792H77.0975L76.2117 25.0499ZM75.6669 23.7346L74.0664 19.8737L72.4713 23.7346H75.6669Z" fill="white"/>
<path d="M86.2323 17.3432L82.0005 25.8638H86.0906V27.1791H79.9893V26.9852L84.245 18.4853H80.0426V17.1776H86.2323V17.3432Z" fill="white"/>
<path d="M94.8514 17.3432L90.6197 25.8638H94.7076V27.1791H88.6062V26.9852L92.8641 18.4853H88.6618V17.1776H94.8514V17.3432Z" fill="white"/>
<path d="M103.196 25.0499H98.9111L98.0242 27.1792H96.5239L100.941 17.0295H101.14L105.571 27.1792H104.085L103.196 25.0499ZM102.651 23.7346L101.05 19.8737L99.4493 23.7346H102.651Z" fill="white"/>
<path d="M110.16 23.3335H108.902V27.1791H107.544V17.1776H110.261C112.305 17.1776 113.505 18.6793 113.505 20.2659C113.505 21.567 112.775 22.7102 111.475 23.1537L113.905 27.1857H112.361L110.16 23.3335ZM108.902 22.0182H110.203C111.347 22.0182 112.132 21.2891 112.132 20.2604C112.132 19.2317 111.347 18.5016 110.203 18.5016H108.902V22.0182Z" fill="white"/>
<path d="M115.377 22.1762C115.377 19.4028 117.408 17 120.523 17C123.638 17 125.655 19.4028 125.655 22.1762C125.655 24.9495 123.625 27.3655 120.52 27.3655C117.415 27.3655 115.377 24.9637 115.377 22.1762ZM124.297 22.1762C124.297 20.1319 122.772 18.3447 120.523 18.3447C118.274 18.3447 116.764 20.1319 116.764 22.1762C116.764 24.2205 118.266 26.0218 120.523 26.0218C122.781 26.0218 124.297 24.2205 124.297 22.1762Z" fill="white"/>
<path d="M132.902 18.5016H130.434V27.1791H129.071V18.5016H126.542V17.1776H132.902V18.5016Z" fill="white"/>
<path d="M142.508 17.1776V27.1846H141.15V22.7908H136.209V27.1791H134.846V17.1776H136.209V21.4809H141.154V17.1776H142.508Z" fill="white"/>
<defs>
<clipPath id="clip0_236_307">
<rect width="40" height="40.3433" fill="white"/>
</clipPath>
</defs>
</svg>
